<svg width="690" height="1104" viewBox="0 0 690 1104" class="keymap" xmlns="http://www.w3.org/2000/svg" xmlns:xlink="http://www.w3.org/1999/xlink">
<style>/* inherit to force styles through use tags */
svg path {
    fill: inherit;
}

/* font and background color specifications */
svg.keymap {
    font-family: SFMono-Regular,Consolas,Liberation Mono,Menlo,monospace;
    font-size: 14px;
    font-kerning: normal;
    text-rendering: optimizeLegibility;
    fill: #24292e;
}

/* default key styling */
rect.key {
    fill: #f6f8fa;
}

rect.key, rect.combo {
    stroke: #c9cccf;
    stroke-width: 1;
}

/* default key side styling, only used is draw_key_sides is set */
rect.side {
    filter: brightness(90%);
}

/* color accent for combo boxes */
rect.combo, rect.combo-separate {
    fill: #cdf;
}

/* color accent for held keys */
rect.held, rect.combo.held {
    fill: #fdd;
}

/* color accent for ghost (optional) keys */
rect.ghost, rect.combo.ghost {
    stroke-dasharray: 4, 4;
    stroke-width: 2;
}

text {
    text-anchor: middle;
    dominant-baseline: middle;
}

/* styling for layer labels */
text.label {
    font-weight: bold;
    text-anchor: start;
    stroke: white;
    stroke-width: 4;
    paint-order: stroke;
}

/* styling for optional footer */
text.footer {
    text-anchor: end;
    dominant-baseline: auto;
    stroke: white;
    stroke-width: 4;
    paint-order: stroke;
}

/* styling for combo tap, and key non-tap label text */
text.combo, text.hold, text.shifted, text.left, text.right, text.tl, text.tr, text.bl, text.br {
    font-size: 11px;
}

text.hold, text.bl, text.br {
    text-anchor: middle;
    dominant-baseline: auto;
}

text.shifted, text.tl, text.tr {
    text-anchor: middle;
    dominant-baseline: hanging;
}

text.left, text.tl, text.bl {
    text-anchor: start;
}

text.right, text.tr, text.br {
    text-anchor: end;
}

text.layer-activator {
    text-decoration: underline;
}

/* styling for hold/shifted label text in combo box */
text.combo.hold, text.combo.shifted, text.combo.left, text.combo.right {
    font-size: 8px;
}

/* lighter symbol for transparent keys */
text.trans {
    fill: #7b7e81;
}

/* styling for combo dendrons */
path.combo {
    stroke-width: 1;
    stroke: gray;
    fill: none;
}

/* Start Tabler Icons Cleanup */
/* cannot use height/width with glyphs */
.icon-tabler > path {
    fill: inherit;
    stroke: inherit;
    stroke-width: 2;
}
/* hide tabler's default box */
.icon-tabler > path[stroke="none"][fill="none"] {
    visibility: hidden;
}
/* End Tabler Icons Cleanup */

.tap        { fill: #1A1F71; font-weight: bold; }
.hold       { fill: #FF7F50; }
.shifted    { fill: #00CED1; }
.right      { fill: #9370DB; }
.left       { fill: #FFD700; }
.more_down  { fill: #FF7F50 !important; }
.more_up    { fill: #00CED1 !important; }
.calculate    { fill: #9370DB !important; }</style>
<g transform="translate(30, 0)" class="layer-layer0">
<text x="0" y="28" class="label" id="layer0">layer0:</text>
<g transform="translate(0, 56)">
<g transform="translate(21, 37)" class="key keypos-0">
<rect rx="6" ry="6" x="-19" y="-19" width="38" height="38" class="key"/>
<text x="0" y="0" class="key tap">TAB</text>
</g>
<g transform="translate(63, 37)" class="key keypos-1">
<rect rx="6" ry="6" x="-19" y="-19" width="38" height="38" class="key"/>
<text x="0" y="0" class="key tap">Q</text>
</g>
<g transform="translate(105, 26)" class="key keypos-2">
<rect rx="6" ry="6" x="-19" y="-19" width="38" height="38" class="key"/>
<text x="0" y="0" class="key tap">W</text>
</g>
<g transform="translate(147, 21)" class="key keypos-3">
<rect rx="6" ry="6" x="-19" y="-19" width="38" height="38" class="key"/>
<text x="0" y="0" class="key tap">E</text>
</g>
<g transform="translate(189, 26)" class="key keypos-4">
<rect rx="6" ry="6" x="-19" y="-19" width="38" height="38" class="key"/>
<text x="0" y="0" class="key tap">R</text>
</g>
<g transform="translate(231, 32)" class="key keypos-5">
<rect rx="6" ry="6" x="-19" y="-19" width="38" height="38" class="key"/>
<text x="0" y="0" class="key tap">T</text>
</g>
<g transform="translate(399, 32)" class="key keypos-6">
<rect rx="6" ry="6" x="-19" y="-19" width="38" height="38" class="key"/>
<text x="0" y="0" class="key tap">Y</text>
</g>
<g transform="translate(441, 26)" class="key keypos-7">
<rect rx="6" ry="6" x="-19" y="-19" width="38" height="38" class="key"/>
<text x="0" y="0" class="key tap">U</text>
</g>
<g transform="translate(483, 21)" class="key keypos-8">
<rect rx="6" ry="6" x="-19" y="-19" width="38" height="38" class="key"/>
<text x="0" y="0" class="key tap">I</text>
</g>
<g transform="translate(525, 26)" class="key keypos-9">
<rect rx="6" ry="6" x="-19" y="-19" width="38" height="38" class="key"/>
<text x="0" y="0" class="key tap">O</text>
</g>
<g transform="translate(567, 37)" class="key keypos-10">
<rect rx="6" ry="6" x="-19" y="-19" width="38" height="38" class="key"/>
<text x="0" y="0" class="key tap">P</text>
</g>
<g transform="translate(609, 37)" class="key keypos-11">
<rect rx="6" ry="6" x="-19" y="-19" width="38" height="38" class="key"/>
<text x="0" y="0" class="key tap">BSPC</text>
</g>
<g transform="translate(21, 79)" class="key keypos-12">
<rect rx="6" ry="6" x="-19" y="-19" width="38" height="38" class="key"/>
<text x="0" y="0" class="key tap">ESC</text>
<a href="#layer2">
<text x="0" y="17" class="key hold layer-activator">layer2</text>
</a></g>
<g transform="translate(63, 79)" class="key keypos-13">
<rect rx="6" ry="6" x="-19" y="-19" width="38" height="38" class="key"/>
<text x="0" y="0" class="key tap">A</text>
</g>
<g transform="translate(105, 68)" class="key keypos-14">
<rect rx="6" ry="6" x="-19" y="-19" width="38" height="38" class="key"/>
<text x="0" y="0" class="key tap">S</text>
</g>
<g transform="translate(147, 63)" class="key keypos-15">
<rect rx="6" ry="6" x="-19" y="-19" width="38" height="38" class="key"/>
<text x="0" y="0" class="key tap">D</text>
</g>
<g transform="translate(189, 68)" class="key keypos-16">
<rect rx="6" ry="6" x="-19" y="-19" width="38" height="38" class="key"/>
<text x="0" y="0" class="key tap">F</text>
</g>
<g transform="translate(231, 74)" class="key keypos-17">
<rect rx="6" ry="6" x="-19" y="-19" width="38" height="38" class="key"/>
<text x="0" y="0" class="key tap">G</text>
</g>
<g transform="translate(399, 74)" class="key keypos-18">
<rect rx="6" ry="6" x="-19" y="-19" width="38" height="38" class="key"/>
<text x="0" y="0" class="key tap">H</text>
</g>
<g transform="translate(441, 68)" class="key keypos-19">
<rect rx="6" ry="6" x="-19" y="-19" width="38" height="38" class="key"/>
<text x="0" y="0" class="key tap">J</text>
</g>
<g transform="translate(483, 63)" class="key keypos-20">
<rect rx="6" ry="6" x="-19" y="-19" width="38" height="38" class="key"/>
<text x="0" y="0" class="key tap">K</text>
</g>
<g transform="translate(525, 68)" class="key keypos-21">
<rect rx="6" ry="6" x="-19" y="-19" width="38" height="38" class="key"/>
<text x="0" y="0" class="key tap">L</text>
</g>
<g transform="translate(567, 79)" class="key keypos-22">
<rect rx="6" ry="6" x="-19" y="-19" width="38" height="38" class="key"/>
<text x="0" y="0" class="key tap">;</text>
</g>
<g transform="translate(609, 79)" class="key keypos-23">
<rect rx="6" ry="6" x="-19" y="-19" width="38" height="38" class="key"/>
<text x="0" y="0" class="key tap">&#x27;</text>
</g>
<g transform="translate(21, 121)" class="key keypos-24">
<rect rx="6" ry="6" x="-19" y="-19" width="38" height="38" class="key"/>
<text x="0" y="0" class="key tap">LSHFT</text>
</g>
<g transform="translate(63, 121)" class="key keypos-25">
<rect rx="6" ry="6" x="-19" y="-19" width="38" height="38" class="key"/>
<text x="0" y="0" class="key tap">Z</text>
</g>
<g transform="translate(105, 110)" class="key keypos-26">
<rect rx="6" ry="6" x="-19" y="-19" width="38" height="38" class="key"/>
<text x="0" y="0" class="key tap">X</text>
</g>
<g transform="translate(147, 105)" class="key keypos-27">
<rect rx="6" ry="6" x="-19" y="-19" width="38" height="38" class="key"/>
<text x="0" y="0" class="key tap">C</text>
</g>
<g transform="translate(189, 110)" class="key keypos-28">
<rect rx="6" ry="6" x="-19" y="-19" width="38" height="38" class="key"/>
<text x="0" y="0" class="key tap">V</text>
</g>
<g transform="translate(231, 116)" class="key keypos-29">
<rect rx="6" ry="6" x="-19" y="-19" width="38" height="38" class="key"/>
<text x="0" y="0" class="key tap">B</text>
</g>
<g transform="translate(399, 116)" class="key keypos-30">
<rect rx="6" ry="6" x="-19" y="-19" width="38" height="38" class="key"/>
<text x="0" y="0" class="key tap">N</text>
</g>
<g transform="translate(441, 110)" class="key keypos-31">
<rect rx="6" ry="6" x="-19" y="-19" width="38" height="38" class="key"/>
<text x="0" y="0" class="key tap">M</text>
</g>
<g transform="translate(483, 105)" class="key keypos-32">
<rect rx="6" ry="6" x="-19" y="-19" width="38" height="38" class="key"/>
<text x="0" y="0" class="key tap">,</text>
</g>
<g transform="translate(525, 110)" class="key keypos-33">
<rect rx="6" ry="6" x="-19" y="-19" width="38" height="38" class="key"/>
<text x="0" y="0" class="key tap">.</text>
</g>
<g transform="translate(567, 121)" class="key keypos-34">
<rect rx="6" ry="6" x="-19" y="-19" width="38" height="38" class="key"/>
<text x="0" y="0" class="key tap">/</text>
</g>
<g transform="translate(609, 121)" class="key keypos-35">
<rect rx="6" ry="6" x="-19" y="-19" width="38" height="38" class="key"/>
<text x="0" y="0" class="key tap">RET</text>
<text x="0" y="17" class="key hold">RSHFT</text>
</g>
<g transform="translate(168, 154)" class="key keypos-36">
<rect rx="6" ry="6" x="-19" y="-19" width="38" height="38" class="key"/>
<text x="0" y="0" class="key tap">(</text>
<text x="0" y="17" class="key hold">LALT</text>
</g>
<g transform="translate(214, 160) rotate(15.0)" class="key keypos-37">
<rect rx="6" ry="6" x="-19" y="-19" width="38" height="38" class="key"/>
<text x="0" y="0" class="key tap">SPACE</text>
<a href="#layer1">
<text x="0" y="17" class="key hold layer-activator">layer1</text>
</a></g>
<g transform="translate(263, 168) rotate(30.0)" class="key keypos-38">
<rect rx="6" ry="6" x="-19" y="-30" width="38" height="59" class="key"/>
<text x="0" y="0" class="key tap">RET</text>
<text x="0" y="28" class="key hold">LCMD</text>
</g>
<g transform="translate(367, 168) rotate(-30.0)" class="key keypos-39">
<rect rx="6" ry="6" x="-19" y="-30" width="38" height="59" class="key"/>
<text x="0" y="0" class="key tap">RET</text>
<text x="0" y="28" class="key hold">RCMD</text>
</g>
<g transform="translate(416, 160) rotate(-15.0)" class="key keypos-40">
<rect rx="6" ry="6" x="-19" y="-19" width="38" height="38" class="key"/>
<text x="0" y="0" class="key tap">SPACE</text>
<a href="#layer1">
<text x="0" y="17" class="key hold layer-activator">layer1</text>
</a></g>
<g transform="translate(462, 154)" class="key keypos-41">
<rect rx="6" ry="6" x="-19" y="-19" width="38" height="38" class="key"/>
<text x="0" y="0" class="key tap">)</text>
<text x="0" y="17" class="key hold">RCTRL</text>
</g>
</g>
</g>
<g transform="translate(30, 262)" class="layer-layer1">
<text x="0" y="28" class="label" id="layer1">layer1:</text>
<g transform="translate(0, 56)">
<g transform="translate(21, 37)" class="key keypos-0">
<rect rx="6" ry="6" x="-19" y="-19" width="38" height="38" class="key"/>
<text x="0" y="0" class="key tap">`</text>
</g>
<g transform="translate(63, 37)" class="key keypos-1">
<rect rx="6" ry="6" x="-19" y="-19" width="38" height="38" class="key"/>
<text x="0" y="0" class="key tap">1</text>
</g>
<g transform="translate(105, 26)" class="key keypos-2">
<rect rx="6" ry="6" x="-19" y="-19" width="38" height="38" class="key"/>
<text x="0" y="0" class="key tap">2</text>
</g>
<g transform="translate(147, 21)" class="key keypos-3">
<rect rx="6" ry="6" x="-19" y="-19" width="38" height="38" class="key"/>
<text x="0" y="0" class="key tap">3</text>
</g>
<g transform="translate(189, 26)" class="key keypos-4">
<rect rx="6" ry="6" x="-19" y="-19" width="38" height="38" class="key"/>
<text x="0" y="0" class="key tap">4</text>
</g>
<g transform="translate(231, 32)" class="key keypos-5">
<rect rx="6" ry="6" x="-19" y="-19" width="38" height="38" class="key"/>
<text x="0" y="0" class="key tap">5</text>
</g>
<g transform="translate(399, 32)" class="key keypos-6">
<rect rx="6" ry="6" x="-19" y="-19" width="38" height="38" class="key"/>
<text x="0" y="0" class="key tap">6</text>
</g>
<g transform="translate(441, 26)" class="key keypos-7">
<rect rx="6" ry="6" x="-19" y="-19" width="38" height="38" class="key"/>
<text x="0" y="0" class="key tap">7</text>
</g>
<g transform="translate(483, 21)" class="key keypos-8">
<rect rx="6" ry="6" x="-19" y="-19" width="38" height="38" class="key"/>
<text x="0" y="0" class="key tap">8</text>
</g>
<g transform="translate(525, 26)" class="key keypos-9">
<rect rx="6" ry="6" x="-19" y="-19" width="38" height="38" class="key"/>
<text x="0" y="0" class="key tap">9</text>
</g>
<g transform="translate(567, 37)" class="key keypos-10">
<rect rx="6" ry="6" x="-19" y="-19" width="38" height="38" class="key"/>
<text x="0" y="0" class="key tap">0</text>
</g>
<g transform="translate(609, 37)" class="key keypos-11">
<rect rx="6" ry="6" x="-19" y="-19" width="38" height="38" class="key"/>
<text x="0" y="0" class="key tap">\</text>
</g>
<g transform="translate(21, 79)" class="key keypos-12">
<rect rx="6" ry="6" x="-19" y="-19" width="38" height="38" class="key"/>
<a href="#layer3">
<text x="0" y="0" class="key tap layer-activator">layer3</text>
</a></g>
<g transform="translate(63, 79)" class="key keypos-13">
<rect rx="6" ry="6" x="-19" y="-19" width="38" height="38" class="key"/>
</g>
<g transform="translate(105, 68)" class="key keypos-14">
<rect rx="6" ry="6" x="-19" y="-19" width="38" height="38" class="key"/>
</g>
<g transform="translate(147, 63)" class="key keypos-15">
<rect rx="6" ry="6" x="-19" y="-19" width="38" height="38" class="key"/>
<text x="0" y="0" class="key tap">
<tspan x="0" dy="-0.6em">Sft+Gui</tspan><tspan x="0" dy="1.2em">+[</tspan>
</text>
</g>
<g transform="translate(189, 68)" class="key keypos-16">
<rect rx="6" ry="6" x="-19" y="-19" width="38" height="38" class="key"/>
<text x="0" y="0" class="key tap">
<tspan x="0" dy="-0.6em">Sft+Gui</tspan><tspan x="0" dy="1.2em">+]</tspan>
</text>
</g>
<g transform="translate(231, 74)" class="key keypos-17">
<rect rx="6" ry="6" x="-19" y="-19" width="38" height="38" class="key"/>
<text x="0" y="0" class="key tap">[</text>
</g>
<g transform="translate(399, 74)" class="key keypos-18">
<rect rx="6" ry="6" x="-19" y="-19" width="38" height="38" class="key"/>
<text x="0" y="0" class="key tap">]</text>
</g>
<g transform="translate(441, 68)" class="key keypos-19">
<rect rx="6" ry="6" x="-19" y="-19" width="38" height="38" class="key"/>
<text x="0" y="0" class="key tap">-</text>
</g>
<g transform="translate(483, 63)" class="key keypos-20">
<rect rx="6" ry="6" x="-19" y="-19" width="38" height="38" class="key"/>
<text x="0" y="0" class="key tap">=</text>
</g>
<g transform="translate(525, 68)" class="key keypos-21">
<rect rx="6" ry="6" x="-19" y="-19" width="38" height="38" class="key"/>
</g>
<g transform="translate(567, 79)" class="key keypos-22">
<rect rx="6" ry="6" x="-19" y="-19" width="38" height="38" class="key"/>
</g>
<g transform="translate(609, 79)" class="key keypos-23">
<rect rx="6" ry="6" x="-19" y="-19" width="38" height="38" class="key"/>
</g>
<g transform="translate(21, 121)" class="key trans keypos-24">
<rect rx="6" ry="6" x="-19" y="-19" width="38" height="38" class="key trans"/>
<text x="0" y="0" class="key trans tap">▽</text>
</g>
<g transform="translate(63, 121)" class="key keypos-25">
<rect rx="6" ry="6" x="-19" y="-19" width="38" height="38" class="key"/>
<text x="0" y="0" class="key tap">F1</text>
</g>
<g transform="translate(105, 110)" class="key keypos-26">
<rect rx="6" ry="6" x="-19" y="-19" width="38" height="38" class="key"/>
<text x="0" y="0" class="key tap">F2</text>
</g>
<g transform="translate(147, 105)" class="key keypos-27">
<rect rx="6" ry="6" x="-19" y="-19" width="38" height="38" class="key"/>
<text x="0" y="0" class="key tap">F3</text>
</g>
<g transform="translate(189, 110)" class="key keypos-28">
<rect rx="6" ry="6" x="-19" y="-19" width="38" height="38" class="key"/>
<text x="0" y="0" class="key tap">F4</text>
</g>
<g transform="translate(231, 116)" class="key keypos-29">
<rect rx="6" ry="6" x="-19" y="-19" width="38" height="38" class="key"/>
<text x="0" y="0" class="key tap">F5</text>
</g>
<g transform="translate(399, 116)" class="key keypos-30">
<rect rx="6" ry="6" x="-19" y="-19" width="38" height="38" class="key"/>
<text x="0" y="0" class="key tap">F6</text>
</g>
<g transform="translate(441, 110)" class="key keypos-31">
<rect rx="6" ry="6" x="-19" y="-19" width="38" height="38" class="key"/>
<text x="0" y="0" class="key tap">F7</text>
</g>
<g transform="translate(483, 105)" class="key keypos-32">
<rect rx="6" ry="6" x="-19" y="-19" width="38" height="38" class="key"/>
<text x="0" y="0" class="key tap">F8</text>
</g>
<g transform="translate(525, 110)" class="key keypos-33">
<rect rx="6" ry="6" x="-19" y="-19" width="38" height="38" class="key"/>
<text x="0" y="0" class="key tap">F9</text>
</g>
<g transform="translate(567, 121)" class="key keypos-34">
<rect rx="6" ry="6" x="-19" y="-19" width="38" height="38" class="key"/>
<text x="0" y="0" class="key tap">F10</text>
</g>
<g transform="translate(609, 121)" class="key trans keypos-35">
<rect rx="6" ry="6" x="-19" y="-19" width="38" height="38" class="key trans"/>
<text x="0" y="0" class="key trans tap">▽</text>
</g>
<g transform="translate(168, 154)" class="key trans keypos-36">
<rect rx="6" ry="6" x="-19" y="-19" width="38" height="38" class="key trans"/>
<text x="0" y="0" class="key trans tap">▽</text>
</g>
<g transform="translate(214, 160) rotate(15.0)" class="key held keypos-37">
<rect rx="6" ry="6" x="-19" y="-19" width="38" height="38" class="key held"/>
</g>
<g transform="translate(263, 168) rotate(30.0)" class="key trans keypos-38">
<rect rx="6" ry="6" x="-19" y="-30" width="38" height="59" class="key trans"/>
<text x="0" y="0" class="key trans tap">▽</text>
</g>
<g transform="translate(367, 168) rotate(-30.0)" class="key trans keypos-39">
<rect rx="6" ry="6" x="-19" y="-30" width="38" height="59" class="key trans"/>
<text x="0" y="0" class="key trans tap">▽</text>
</g>
<g transform="translate(416, 160) rotate(-15.0)" class="key trans keypos-40">
<rect rx="6" ry="6" x="-19" y="-19" width="38" height="38" class="key trans"/>
<text x="0" y="0" class="key trans tap">▽</text>
</g>
<g transform="translate(462, 154)" class="key trans keypos-41">
<rect rx="6" ry="6" x="-19" y="-19" width="38" height="38" class="key trans"/>
<text x="0" y="0" class="key trans tap">▽</text>
</g>
</g>
</g>
<g transform="translate(30, 524)" class="layer-layer2">
<text x="0" y="28" class="label" id="layer2">layer2:</text>
<g transform="translate(0, 56)">
<g transform="translate(21, 37)" class="key keypos-0">
<rect rx="6" ry="6" x="-19" y="-19" width="38" height="38" class="key"/>
</g>
<g transform="translate(63, 37)" class="key keypos-1">
<rect rx="6" ry="6" x="-19" y="-19" width="38" height="38" class="key"/>
</g>
<g transform="translate(105, 26)" class="key keypos-2">
<rect rx="6" ry="6" x="-19" y="-19" width="38" height="38" class="key"/>
<text x="0" y="0" class="key tap">MUTE</text>
</g>
<g transform="translate(147, 21)" class="key keypos-3">
<rect rx="6" ry="6" x="-19" y="-19" width="38" height="38" class="key"/>
<text x="0" y="0" class="key tap">
<tspan x="0" dy="-0.6em">VOLUME</tspan><tspan x="0" dy="1.2em">DOWN</tspan>
</text>
</g>
<g transform="translate(189, 26)" class="key keypos-4">
<rect rx="6" ry="6" x="-19" y="-19" width="38" height="38" class="key"/>
<text x="0" y="0" class="key tap">
<tspan x="0" dy="-0.6em">VOLUME</tspan><tspan x="0" dy="1.2em">UP</tspan>
</text>
</g>
<g transform="translate(231, 32)" class="key keypos-5">
<rect rx="6" ry="6" x="-19" y="-19" width="38" height="38" class="key"/>
</g>
<g transform="translate(399, 32)" class="key keypos-6">
<rect rx="6" ry="6" x="-19" y="-19" width="38" height="38" class="key"/>
<text x="0" y="0" class="key tap">HOME</text>
</g>
<g transform="translate(441, 26)" class="key keypos-7">
<rect rx="6" ry="6" x="-19" y="-19" width="38" height="38" class="key"/>
<text x="0" y="0" class="key tap">
<tspan x="0" dy="-0.6em">PAGE</tspan><tspan x="0" dy="1.2em">DOWN</tspan>
</text>
</g>
<g transform="translate(483, 21)" class="key keypos-8">
<rect rx="6" ry="6" x="-19" y="-19" width="38" height="38" class="key"/>
<text x="0" y="0" class="key tap">
<tspan x="0" dy="-0.6em">PAGE</tspan><tspan x="0" dy="1.2em">UP</tspan>
</text>
</g>
<g transform="translate(525, 26)" class="key keypos-9">
<rect rx="6" ry="6" x="-19" y="-19" width="38" height="38" class="key"/>
<text x="0" y="0" class="key tap">END</text>
</g>
<g transform="translate(567, 37)" class="key keypos-10">
<rect rx="6" ry="6" x="-19" y="-19" width="38" height="38" class="key"/>
</g>
<g transform="translate(609, 37)" class="key keypos-11">
<rect rx="6" ry="6" x="-19" y="-19" width="38" height="38" class="key"/>
<text x="0" y="0" class="key tap">DELETE</text>
</g>
<g transform="translate(21, 79)" class="key held keypos-12">
<rect rx="6" ry="6" x="-19" y="-19" width="38" height="38" class="key held"/>
</g>
<g transform="translate(63, 79)" class="key keypos-13">
<rect rx="6" ry="6" x="-19" y="-19" width="38" height="38" class="key"/>
</g>
<g transform="translate(105, 68)" class="key keypos-14">
<rect rx="6" ry="6" x="-19" y="-19" width="38" height="38" class="key"/>
<text x="0" y="0" class="key tap">REWIND</text>
</g>
<g transform="translate(147, 63)" class="key keypos-15">
<rect rx="6" ry="6" x="-19" y="-19" width="38" height="38" class="key"/>
<text x="0" y="0" class="key tap">
<tspan x="0" dy="-0.6em">PLAY</tspan><tspan x="0" dy="1.2em">PAUSE</tspan>
</text>
</g>
<g transform="translate(189, 68)" class="key keypos-16">
<rect rx="6" ry="6" x="-19" y="-19" width="38" height="38" class="key"/>
<text x="0" y="0" class="key tap">
<tspan x="0" dy="-0.6em">FAST</tspan><tspan x="0" dy="1.2em">FORWARD</tspan>
</text>
</g>
<g transform="translate(231, 74)" class="key keypos-17">
<rect rx="6" ry="6" x="-19" y="-19" width="38" height="38" class="key"/>
</g>
<g transform="translate(399, 74)" class="key keypos-18">
<rect rx="6" ry="6" x="-19" y="-19" width="38" height="38" class="key"/>
<text x="0" y="0" class="key tap">LEFT</text>
</g>
<g transform="translate(441, 68)" class="key keypos-19">
<rect rx="6" ry="6" x="-19" y="-19" width="38" height="38" class="key"/>
<text x="0" y="0" class="key tap">DOWN</text>
</g>
<g transform="translate(483, 63)" class="key keypos-20">
<rect rx="6" ry="6" x="-19" y="-19" width="38" height="38" class="key"/>
<text x="0" y="0" class="key tap">UP</text>
</g>
<g transform="translate(525, 68)" class="key keypos-21">
<rect rx="6" ry="6" x="-19" y="-19" width="38" height="38" class="key"/>
<text x="0" y="0" class="key tap">RIGHT</text>
</g>
<g transform="translate(567, 79)" class="key keypos-22">
<rect rx="6" ry="6" x="-19" y="-19" width="38" height="38" class="key"/>
</g>
<g transform="translate(609, 79)" class="key trans keypos-23">
<rect rx="6" ry="6" x="-19" y="-19" width="38" height="38" class="key trans"/>
<text x="0" y="0" class="key trans tap">▽</text>
</g>
<g transform="translate(21, 121)" class="key trans keypos-24">
<rect rx="6" ry="6" x="-19" y="-19" width="38" height="38" class="key trans"/>
<text x="0" y="0" class="key trans tap">▽</text>
</g>
<g transform="translate(63, 121)" class="key keypos-25">
<rect rx="6" ry="6" x="-19" y="-19" width="38" height="38" class="key"/>
</g>
<g transform="translate(105, 110)" class="key keypos-26">
<rect rx="6" ry="6" x="-19" y="-19" width="38" height="38" class="key"/>
</g>
<g transform="translate(147, 105)" class="key keypos-27">
<rect rx="6" ry="6" x="-19" y="-19" width="38" height="38" class="key"/>
</g>
<g transform="translate(189, 110)" class="key keypos-28">
<rect rx="6" ry="6" x="-19" y="-19" width="38" height="38" class="key"/>
</g>
<g transform="translate(231, 116)" class="key keypos-29">
<rect rx="6" ry="6" x="-19" y="-19" width="38" height="38" class="key"/>
</g>
<g transform="translate(399, 116)" class="key keypos-30">
<rect rx="6" ry="6" x="-19" y="-19" width="38" height="38" class="key"/>
</g>
<g transform="translate(441, 110)" class="key keypos-31">
<rect rx="6" ry="6" x="-19" y="-19" width="38" height="38" class="key"/>
</g>
<g transform="translate(483, 105)" class="key keypos-32">
<rect rx="6" ry="6" x="-19" y="-19" width="38" height="38" class="key"/>
</g>
<g transform="translate(525, 110)" class="key keypos-33">
<rect rx="6" ry="6" x="-19" y="-19" width="38" height="38" class="key"/>
</g>
<g transform="translate(567, 121)" class="key keypos-34">
<rect rx="6" ry="6" x="-19" y="-19" width="38" height="38" class="key"/>
</g>
<g transform="translate(609, 121)" class="key keypos-35">
<rect rx="6" ry="6" x="-19" y="-19" width="38" height="38" class="key"/>
</g>
<g transform="translate(168, 154)" class="key trans keypos-36">
<rect rx="6" ry="6" x="-19" y="-19" width="38" height="38" class="key trans"/>
<text x="0" y="0" class="key trans tap">▽</text>
</g>
<g transform="translate(214, 160) rotate(15.0)" class="key keypos-37">
<rect rx="6" ry="6" x="-19" y="-19" width="38" height="38" class="key"/>
<a href="#layer3">
<text x="0" y="0" class="key tap layer-activator">layer3</text>
</a></g>
<g transform="translate(263, 168) rotate(30.0)" class="key trans keypos-38">
<rect rx="6" ry="6" x="-19" y="-30" width="38" height="59" class="key trans"/>
<text x="0" y="0" class="key trans tap">▽</text>
</g>
<g transform="translate(367, 168) rotate(-30.0)" class="key trans keypos-39">
<rect rx="6" ry="6" x="-19" y="-30" width="38" height="59" class="key trans"/>
<text x="0" y="0" class="key trans tap">▽</text>
</g>
<g transform="translate(416, 160) rotate(-15.0)" class="key keypos-40">
<rect rx="6" ry="6" x="-19" y="-19" width="38" height="38" class="key"/>
</g>
<g transform="translate(462, 154)" class="key trans keypos-41">
<rect rx="6" ry="6" x="-19" y="-19" width="38" height="38" class="key trans"/>
<text x="0" y="0" class="key trans tap">▽</text>
</g>
</g>
</g>
<g transform="translate(30, 786)" class="layer-layer3">
<text x="0" y="28" class="label" id="layer3">layer3:</text>
<g transform="translate(0, 56)">
<g transform="translate(21, 37)" class="key keypos-0">
<rect rx="6" ry="6" x="-19" y="-19" width="38" height="38" class="key"/>
</g>
<g transform="translate(63, 37)" class="key keypos-1">
<rect rx="6" ry="6" x="-19" y="-19" width="38" height="38" class="key"/>
</g>
<g transform="translate(105, 26)" class="key keypos-2">
<rect rx="6" ry="6" x="-19" y="-19" width="38" height="38" class="key"/>
</g>
<g transform="translate(147, 21)" class="key keypos-3">
<rect rx="6" ry="6" x="-19" y="-19" width="38" height="38" class="key"/>
</g>
<g transform="translate(189, 26)" class="key keypos-4">
<rect rx="6" ry="6" x="-19" y="-19" width="38" height="38" class="key"/>
</g>
<g transform="translate(231, 32)" class="key keypos-5">
<rect rx="6" ry="6" x="-19" y="-19" width="38" height="38" class="key"/>
<text x="0" y="0" class="key tap">
<tspan x="0" dy="-0.6em">EP</tspan><tspan x="0" dy="1.2em">OFF</tspan>
</text>
</g>
<g transform="translate(399, 32)" class="key keypos-6">
<rect rx="6" ry="6" x="-19" y="-19" width="38" height="38" class="key"/>
</g>
<g transform="translate(441, 26)" class="key keypos-7">
<rect rx="6" ry="6" x="-19" y="-19" width="38" height="38" class="key"/>
<text x="0" y="0" class="key tap">
<tspan x="0" dy="-0.6em">KP</tspan><tspan x="0" dy="1.2em">7</tspan>
</text>
</g>
<g transform="translate(483, 21)" class="key keypos-8">
<rect rx="6" ry="6" x="-19" y="-19" width="38" height="38" class="key"/>
<text x="0" y="0" class="key tap">
<tspan x="0" dy="-0.6em">KP</tspan><tspan x="0" dy="1.2em">8</tspan>
</text>
</g>
<g transform="translate(525, 26)" class="key keypos-9">
<rect rx="6" ry="6" x="-19" y="-19" width="38" height="38" class="key"/>
<text x="0" y="0" class="key tap">
<tspan x="0" dy="-0.6em">KP</tspan><tspan x="0" dy="1.2em">9</tspan>
</text>
</g>
<g transform="translate(567, 37)" class="key keypos-10">
<rect rx="6" ry="6" x="-19" y="-19" width="38" height="38" class="key"/>
<text x="0" y="0" class="key tap">
<tspan x="0" dy="-0.6em">KP</tspan><tspan x="0" dy="1.2em">PLUS</tspan>
</text>
</g>
<g transform="translate(609, 37)" class="key keypos-11">
<rect rx="6" ry="6" x="-19" y="-19" width="38" height="38" class="key"/>
<text x="0" y="0" class="key tap">
<tspan x="0" dy="-0.6em" style="font-size: 88%">KP</tspan><tspan x="0" dy="1.2em" style="font-size: 88%">ASTERISK</tspan>
</text>
</g>
<g transform="translate(21, 79)" class="key held keypos-12">
<rect rx="6" ry="6" x="-19" y="-19" width="38" height="38" class="key held"/>
</g>
<g transform="translate(63, 79)" class="key keypos-13">
<rect rx="6" ry="6" x="-19" y="-19" width="38" height="38" class="key"/>
</g>
<g transform="translate(105, 68)" class="key keypos-14">
<rect rx="6" ry="6" x="-19" y="-19" width="38" height="38" class="key"/>
</g>
<g transform="translate(147, 63)" class="key keypos-15">
<rect rx="6" ry="6" x="-19" y="-19" width="38" height="38" class="key"/>
</g>
<g transform="translate(189, 68)" class="key keypos-16">
<rect rx="6" ry="6" x="-19" y="-19" width="38" height="38" class="key"/>
</g>
<g transform="translate(231, 74)" class="key keypos-17">
<rect rx="6" ry="6" x="-19" y="-19" width="38" height="38" class="key"/>
</g>
<g transform="translate(399, 74)" class="key keypos-18">
<rect rx="6" ry="6" x="-19" y="-19" width="38" height="38" class="key"/>
</g>
<g transform="translate(441, 68)" class="key keypos-19">
<rect rx="6" ry="6" x="-19" y="-19" width="38" height="38" class="key"/>
<text x="0" y="0" class="key tap">
<tspan x="0" dy="-0.6em">KP</tspan><tspan x="0" dy="1.2em">4</tspan>
</text>
</g>
<g transform="translate(483, 63)" class="key keypos-20">
<rect rx="6" ry="6" x="-19" y="-19" width="38" height="38" class="key"/>
<text x="0" y="0" class="key tap">
<tspan x="0" dy="-0.6em">KP</tspan><tspan x="0" dy="1.2em">5</tspan>
</text>
</g>
<g transform="translate(525, 68)" class="key keypos-21">
<rect rx="6" ry="6" x="-19" y="-19" width="38" height="38" class="key"/>
<text x="0" y="0" class="key tap">
<tspan x="0" dy="-0.6em">KP</tspan><tspan x="0" dy="1.2em">6</tspan>
</text>
</g>
<g transform="translate(567, 79)" class="key keypos-22">
<rect rx="6" ry="6" x="-19" y="-19" width="38" height="38" class="key"/>
<text x="0" y="0" class="key tap">
<tspan x="0" dy="-0.6em">KP</tspan><tspan x="0" dy="1.2em">MINUS</tspan>
</text>
</g>
<g transform="translate(609, 79)" class="key keypos-23">
<rect rx="6" ry="6" x="-19" y="-19" width="38" height="38" class="key"/>
<text x="0" y="0" class="key tap">
<tspan x="0" dy="-0.6em">KP</tspan><tspan x="0" dy="1.2em">SLASH</tspan>
</text>
</g>
<g transform="translate(21, 121)" class="key keypos-24">
<rect rx="6" ry="6" x="-19" y="-19" width="38" height="38" class="key"/>
</g>
<g transform="translate(63, 121)" class="key keypos-25">
<rect rx="6" ry="6" x="-19" y="-19" width="38" height="38" class="key"/>
</g>
<g transform="translate(105, 110)" class="key keypos-26">
<rect rx="6" ry="6" x="-19" y="-19" width="38" height="38" class="key"/>
</g>
<g transform="translate(147, 105)" class="key keypos-27">
<rect rx="6" ry="6" x="-19" y="-19" width="38" height="38" class="key"/>
</g>
<g transform="translate(189, 110)" class="key keypos-28">
<rect rx="6" ry="6" x="-19" y="-19" width="38" height="38" class="key"/>
</g>
<g transform="translate(231, 116)" class="key keypos-29">
<rect rx="6" ry="6" x="-19" y="-19" width="38" height="38" class="key"/>
</g>
<g transform="translate(399, 116)" class="key keypos-30">
<rect rx="6" ry="6" x="-19" y="-19" width="38" height="38" class="key"/>
</g>
<g transform="translate(441, 110)" class="key keypos-31">
<rect rx="6" ry="6" x="-19" y="-19" width="38" height="38" class="key"/>
<text x="0" y="0" class="key tap">
<tspan x="0" dy="-0.6em">KP</tspan><tspan x="0" dy="1.2em">1</tspan>
</text>
</g>
<g transform="translate(483, 105)" class="key keypos-32">
<rect rx="6" ry="6" x="-19" y="-19" width="38" height="38" class="key"/>
<text x="0" y="0" class="key tap">
<tspan x="0" dy="-0.6em">KP</tspan><tspan x="0" dy="1.2em">2</tspan>
</text>
</g>
<g transform="translate(525, 110)" class="key keypos-33">
<rect rx="6" ry="6" x="-19" y="-19" width="38" height="38" class="key"/>
<text x="0" y="0" class="key tap">
<tspan x="0" dy="-0.6em">KP</tspan><tspan x="0" dy="1.2em">3</tspan>
</text>
</g>
<g transform="translate(567, 121)" class="key keypos-34">
<rect rx="6" ry="6" x="-19" y="-19" width="38" height="38" class="key"/>
</g>
<g transform="translate(609, 121)" class="key keypos-35">
<rect rx="6" ry="6" x="-19" y="-19" width="38" height="38" class="key"/>
</g>
<g transform="translate(168, 154)" class="key trans keypos-36">
<rect rx="6" ry="6" x="-19" y="-19" width="38" height="38" class="key trans"/>
<text x="0" y="0" class="key trans tap">▽</text>
</g>
<g transform="translate(214, 160) rotate(15.0)" class="key held keypos-37">
<rect rx="6" ry="6" x="-19" y="-19" width="38" height="38" class="key held"/>
</g>
<g transform="translate(263, 168) rotate(30.0)" class="key keypos-38">
<rect rx="6" ry="6" x="-19" y="-30" width="38" height="59" class="key"/>
<text x="0" y="0" class="key tap">
<tspan x="0" dy="-0.6em">KP</tspan><tspan x="0" dy="1.2em">NUM</tspan>
</text>
</g>
<g transform="translate(367, 168) rotate(-30.0)" class="key trans keypos-39">
<rect rx="6" ry="6" x="-19" y="-30" width="38" height="59" class="key trans"/>
<text x="0" y="0" class="key trans tap">▽</text>
</g>
<g transform="translate(416, 160) rotate(-15.0)" class="key keypos-40">
<rect rx="6" ry="6" x="-19" y="-19" width="38" height="38" class="key"/>
<text x="0" y="0" class="key tap">
<tspan x="0" dy="-0.6em">KP</tspan><tspan x="0" dy="1.2em">0</tspan>
</text>
</g>
<g transform="translate(462, 154)" class="key keypos-41">
<rect rx="6" ry="6" x="-19" y="-19" width="38" height="38" class="key"/>
<text x="0" y="0" class="key tap">
<tspan x="0" dy="-0.6em">KP</tspan><tspan x="0" dy="1.2em">DOT</tspan>
</text>
</g>
</g>
</g>
</svg>
